<?xml version="1.0" standalone="no"?>
<!DOCTYPE svg PUBLIC "-//W3C//DTD SVG 20010904//EN"
 "http://www.w3.org/TR/2001/REC-SVG-20010904/DTD/svg10.dtd">
<svg version="1.0" xmlns="http://www.w3.org/2000/svg"
 width="332.000000pt" height="332.000000pt" viewBox="0 0 332.000000 332.000000"
 preserveAspectRatio="xMidYMid meet">
<metadata>
Created by potrace 1.14, written by Peter Selinger 2001-2017
</metadata>
<g transform="translate(0.000000,332.000000) scale(0.100000,-0.100000)"
fill="#000000" stroke="none">
<path d="M2978 3197 c-187 -180 -321 -338 -460 -542 -194 -284 -359 -624 -454
-937 l-18 -58 -75 0 c-159 0 -363 -40 -461 -90 -22 -11 -43 -20 -48 -20 -6 0
-45 61 -87 136 -126 222 -315 498 -454 664 -128 153 -187 217 -325 353 -167
166 -507 450 -520 436 -24 -24 -41 -587 -24 -769 28 -290 108 -521 232 -671
44 -54 106 -110 106 -96 0 2 -16 38 -35 80 -101 219 -156 437 -171 673 -6 104
8 327 24 388 l8 29 80 -70 c147 -131 261 -246 414 -418 20 -22 67 -80 105
-128 252 -318 406 -611 406 -772 0 -76 -15 -110 -72 -159 -61 -52 -126 -71
-241 -71 l-96 0 47 -50 c110 -117 165 -228 197 -400 44 -232 210 -403 437
-452 84 -18 219 -13 312 12 78 21 206 84 273 135 l53 40 -41 -73 c-70 -129
-104 -249 -86 -305 14 -44 96 -67 178 -52 67 13 94 39 103 98 14 91 54 135
125 135 65 0 96 -19 125 -76 14 -28 25 -59 25 -68 0 -10 4 -20 9 -24 13 -8 25
117 17 183 -9 77 -48 158 -98 204 -41 38 -41 38 -14 38 36 0 84 -21 123 -54
l31 -26 46 51 c60 66 108 154 138 249 19 62 23 96 22 195 0 104 -4 131 -28
200 -41 119 -98 209 -195 305 -87 87 -175 143 -269 171 -31 9 -41 16 -38 28 3
9 21 68 40 132 92 306 241 620 422 891 77 115 224 308 235 308 25 0 38 -455
17 -620 -17 -145 -59 -326 -109 -470 -67 -195 -66 -193 -22 -125 271 417 371
932 273 1403 -29 138 -39 172 -53 172 -7 0 -64 -51 -129 -113z m-262 -2343
c-14 -107 -103 -187 -217 -198 -62 -5 -70 0 -56 32 38 89 100 149 194 188 83
34 87 33 79 -22z m-919 -104 c80 -39 193 -164 170 -187 -21 -20 -204 5 -303
42 -74 28 -196 103 -188 116 7 13 61 40 109 56 58 19 139 8 212 -27z"/>
</g>
</svg>
